<mxfile host="app.diagrams.net" modified="2023-03-28T06:27:24.069Z" agent="Mozilla/5.0 (Windows NT 10.0; Win64; x64) AppleWebKit/537.36 (KHTML, like Gecko) Chrome/103.0.0.0 Safari/537.36" version="21.1.1" etag="ItU-6nDXJd0_tS81oP03" type="github">
  <diagram name="第 1 页" id="pwtwcroqMG6UptxHQ1Sy">
    <mxGraphModel>
      <root>
        <mxCell id="0" />
        <mxCell id="1" parent="0" />
      </root>
    </mxGraphModel>
  </diagram>
</mxfile>
